<?xml version="1.0" encoding="utf-8"?><svg version="1.1" id="Layer_1" xmlns="http://www.w3.org/2000/svg" xmlns:xlink="http://www.w3.org/1999/xlink" x="0px" y="0px" viewBox="0 0 43.27 122.88" style="enable-background:new 0 0 43.27 122.88" xml:space="preserve"><style type="text/css">.st0{fill-rule:evenodd;clip-rule:evenodd;fill:#79A73A;} .st1{fill-rule:evenodd;clip-rule:evenodd;fill:#F0CF4D;} .st2{fill-rule:evenodd;clip-rule:evenodd;fill:#393939;}</style><g><path class="st0" d="M43.27,99.85v1.39c0,11.9-9.74,21.64-21.64,21.64l0,0C9.74,122.88,0,113.14,0,101.24v-1.39H43.27L43.27,99.85z M29.74,25.73c7.92,3.22,13.54,11.01,13.54,20.05v2.97H0v-2.97c0-9.04,5.62-16.83,13.54-20.05H29.74L29.74,25.73z"/><polygon class="st1" points="43.27,51.21 43.27,97.4 0,97.4 0,51.21 43.27,51.21"/><path class="st2" d="M11.95,0h19.01c1.93,0,3.51,1.58,3.51,3.51l0,0c0,1.93-1.58,3.51-3.51,3.51h-4.15v4.98h10.35v-1.15 c0-1.44,1.17-2.61,2.61-2.61h0c1.44,0,2.61,1.18,2.61,2.61v9.75c0,1.43-1.18,2.61-2.61,2.61h0c-1.43,0-2.61-1.17-2.61-2.61v-0.92 H26.81v4.24H15.74V7.02h-3.8c-1.93,0-3.51-1.58-3.51-3.51l0,0C8.44,1.58,10.02,0,11.95,0L11.95,0z"/><path class="st2" d="M34.21,83.65h-6.99c0.08-0.69,0.32-1.34,0.73-1.94c0.41-0.61,1.17-1.33,2.28-2.15 c0.68-0.51,1.12-0.89,1.31-1.15c0.19-0.26,0.29-0.51,0.29-0.75c0-0.26-0.09-0.47-0.28-0.66c-0.19-0.18-0.43-0.27-0.71-0.27 c-0.3,0-0.54,0.09-0.73,0.28c-0.19,0.19-0.32,0.52-0.38,0.99l-2.33-0.19c0.09-0.66,0.26-1.17,0.5-1.54 c0.24-0.37,0.59-0.65,1.03-0.85c0.44-0.2,1.06-0.29,1.84-0.29c0.82,0,1.46,0.09,1.91,0.28c0.45,0.19,0.81,0.47,1.07,0.86 c0.26,0.39,0.39,0.82,0.39,1.3c0,0.51-0.15,1-0.45,1.46c-0.3,0.46-0.84,0.98-1.63,1.53c-0.47,0.32-0.78,0.55-0.94,0.68 c-0.16,0.13-0.34,0.3-0.56,0.51h3.64V83.65L34.21,83.65z M9.07,73.38c0-2.66,0.74-4.73,2.22-6.2c1.48-1.48,3.54-2.22,6.19-2.22 c2.71,0,4.8,0.73,6.26,2.18c1.47,1.46,2.2,3.49,2.2,6.11c0,1.9-0.32,3.46-0.96,4.68c-0.64,1.22-1.57,2.16-2.78,2.84 c-1.21,0.68-2.72,1.02-4.53,1.02c-1.83,0-3.35-0.29-4.56-0.88c-1.2-0.59-2.18-1.51-2.93-2.78C9.44,76.87,9.07,75.28,9.07,73.38 L9.07,73.38z M14.09,73.39c0,1.64,0.31,2.82,0.92,3.54c0.61,0.72,1.45,1.08,2.5,1.08c1.08,0,1.92-0.35,2.51-1.05 c0.6-0.7,0.89-1.96,0.89-3.79c0-1.53-0.31-2.65-0.93-3.35c-0.62-0.71-1.46-1.06-2.52-1.06c-1.02,0-1.83,0.36-2.45,1.08 C14.4,70.55,14.09,71.74,14.09,73.39L14.09,73.39z"/></g></svg>